<?xml version="1.0" standalone="no"?>
<!DOCTYPE svg PUBLIC "-//W3C//DTD SVG 20010904//EN"
 "http://www.w3.org/TR/2001/REC-SVG-20010904/DTD/svg10.dtd">
<svg version="1.0" xmlns="http://www.w3.org/2000/svg"
 width="750.000000pt" height="87.000000pt" viewBox="0 0 750.000000 87.000000"
 preserveAspectRatio="xMidYMid meet">
<metadata>
Created by potrace 1.16, written by Peter Selinger 2001-2019
</metadata>
<g transform="translate(0.000000,87.000000) scale(0.100000,-0.100000)"
fill="#000000" stroke="none">
<path d="M0 435 l0 -435 3750 0 3750 0 0 435 0 435 -3750 0 -3750 0 0 -435z
m1122 298 c26 -26 48 -54 48 -63 0 -8 -43 -64 -95 -124 l-94 -109 47 -66 c25
-36 66 -93 90 -126 l43 -60 -63 -57 c-34 -32 -65 -58 -68 -58 -4 0 -41 51 -83
114 -110 162 -107 161 -107 24 0 -75 -4 -118 -12 -126 -14 -14 -154 -17 -162
-3 -6 9 10 440 22 596 l7 90 80 0 80 0 -3 -100 -2 -100 106 108 c58 59 109
107 112 107 3 0 28 -21 54 -47z m5095 26 c94 -46 129 -138 120 -324 -6 -133
-25 -201 -77 -272 -60 -82 -177 -115 -265 -74 -51 23 -78 53 -107 116 -19 43
-22 65 -21 158 2 156 30 258 93 337 61 77 169 102 257 59z m-5740 -25 c12 -15
31 -62 42 -103 29 -106 103 -530 97 -548 -4 -11 -25 -13 -93 -11 l-88 3 -9 65
c-5 36 -10 66 -11 68 -4 4 -136 -25 -143 -33 -4 -3 -12 -25 -17 -47 -6 -23
-17 -46 -26 -51 -9 -6 -46 -7 -92 -2 -64 6 -77 10 -77 24 0 37 84 301 141 443
74 187 84 207 112 212 12 3 31 7 42 10 46 11 100 -2 122 -30z m1110 14 c24
-19 51 -85 67 -165 28 -130 86 -462 86 -488 l0 -26 -92 3 -93 3 -7 64 c-4 35
-9 65 -11 67 -5 5 -136 -22 -143 -29 -3 -3 -11 -27 -18 -54 l-13 -48 -88 2
c-48 1 -90 5 -93 8 -19 19 199 642 232 662 38 24 145 25 173 1z m885 -78 c-1
-52 -5 -110 -8 -127 l-5 -33 69 0 69 0 7 38 c3 20 6 65 6 98 0 34 3 76 6 93
l7 31 85 0 85 0 -8 -122 c-4 -68 -11 -222 -14 -343 l-6 -220 -90 0 -90 0 4
137 c4 157 8 150 -83 127 l-43 -11 -5 -122 c-3 -68 -8 -128 -12 -134 -5 -8
-38 -12 -92 -12 l-84 0 0 53 c0 82 39 627 46 638 3 5 40 9 82 7 l77 -3 -3 -95z
m1531 89 c32 -14 60 -68 80 -149 27 -113 98 -521 92 -531 -4 -5 -46 -9 -94 -9
l-88 0 -7 31 c-3 17 -6 49 -6 71 0 37 -2 40 -22 35 -13 -3 -48 -10 -79 -17
-55 -11 -57 -12 -64 -48 -14 -73 -18 -76 -107 -69 -43 4 -83 9 -88 12 -17 11
74 301 162 517 l60 147 42 10 c58 13 91 13 119 0z m438 -15 c10 -9 40 -71 66
-138 l48 -121 9 137 c5 85 13 138 20 141 6 2 41 2 79 -1 78 -5 72 19 57 -207
-6 -82 -10 -223 -10 -311 l0 -161 -46 -7 c-71 -9 -111 -7 -121 7 -5 6 -36 82
-67 167 -32 85 -61 161 -66 170 -6 9 -10 -42 -10 -136 0 -83 -3 -166 -6 -183
l-6 -31 -86 0 -85 0 7 143 c10 212 36 531 44 539 22 22 146 16 173 -8z m826
10 c3 -8 2 -43 -3 -77 l-9 -62 -72 -3 -71 -3 -6 -102 c-4 -56 -10 -176 -14
-267 l-7 -165 -84 -3 -84 -3 7 262 7 262 -29 -6 c-16 -3 -53 -9 -81 -13 l-52
-7 3 94 3 94 145 5 c306 12 340 11 347 -6z m238 -114 l-8 -131 69 3 69 3 2 45
c2 25 5 82 9 128 l6 82 85 0 86 0 -6 -127 c-4 -71 -10 -226 -14 -346 l-6 -218
-91 3 -91 3 3 110 c1 61 5 122 8 138 5 25 3 27 -28 26 -18 0 -49 -6 -68 -13
l-35 -13 -5 -129 -5 -129 -88 -3 c-71 -2 -88 0 -93 12 -6 16 33 650 41 674 3
8 30 12 86 12 l81 0 -7 -130z m1567 60 c-1 -36 -5 -93 -8 -127 l-6 -63 70 0
70 0 7 108 c3 59 7 116 8 127 2 18 10 20 91 23 l88 3 -7 -88 c-4 -48 -11 -203
-14 -343 l-6 -255 -90 0 -90 0 3 138 c3 133 2 137 -18 137 -37 0 -110 -22
-111 -34 -1 -6 -4 -65 -8 -131 l-6 -120 -84 -3 c-46 -2 -88 1 -92 5 -9 9 34
664 45 682 5 8 32 11 84 9 l77 -3 -3 -65z m-4904 40 c44 -27 64 -76 60 -153
l-3 -62 -75 0 -75 0 -3 53 c-3 48 -5 53 -25 50 -12 -2 -28 -15 -35 -30 -18
-38 -1 -72 58 -115 97 -72 123 -98 142 -141 38 -85 -3 -201 -85 -244 -78 -42
-251 -24 -331 35 -17 12 -16 16 10 70 16 31 32 57 38 57 5 0 33 -12 62 -26 84
-41 146 -23 131 38 -5 17 -34 43 -91 81 -100 66 -118 90 -124 163 -8 96 43
189 123 225 58 27 179 26 223 -1z m1339 4 c53 -26 67 -55 68 -143 l0 -76 -75
0 -75 0 -5 50 c-4 41 -9 51 -26 53 -16 2 -25 -5 -34 -27 -20 -49 1 -83 80
-136 81 -53 115 -94 129 -155 13 -58 -1 -116 -41 -164 -47 -57 -80 -70 -178
-70 -74 0 -94 4 -152 31 -38 18 -68 37 -68 43 0 17 50 110 59 110 5 0 34 -12
65 -26 62 -28 113 -29 130 -1 18 28 -12 67 -94 122 -96 65 -120 100 -120 177
0 98 44 171 125 209 52 24 163 25 212 3z m3250 0 c53 -26 67 -55 68 -143 l0
-76 -75 0 -75 0 -5 50 c-4 41 -9 51 -26 53 -16 2 -25 -5 -34 -27 -20 -49 1
-83 80 -136 81 -53 115 -94 129 -155 13 -58 -1 -116 -41 -164 -47 -57 -80 -70
-178 -70 -74 0 -94 4 -152 31 -38 18 -68 37 -68 43 0 17 50 110 59 110 5 0 34
-12 65 -26 62 -28 113 -29 130 -1 18 28 -12 67 -94 122 -96 65 -120 100 -120
177 0 98 44 171 125 209 52 24 163 25 212 3z"/>
<path d="M6096 621 c-29 -32 -47 -111 -53 -228 -5 -94 -3 -116 11 -138 34 -52
76 -23 101 70 18 71 22 248 7 288 -13 32 -41 35 -66 8z"/>
</g>
</svg>
